<?xml version="1.0" encoding="utf-8"?>
<!-- Generator: Adobe Illustrator 24.2.2, SVG Export Plug-In . SVG Version: 6.00 Build 0)  -->
<svg version="1.1" id="Layer_1" xmlns="http://www.w3.org/2000/svg" xmlns:xlink="http://www.w3.org/1999/xlink" x="0px" y="0px"
	 viewBox="0 0 500 143.88" style="enable-background:new 0 0 500 143.88;" xml:space="preserve">
<style type="text/css">
	.st0{fill:#BE1E2D;}
</style>
<g>
	<g>
		<path class="st0" d="M26.25,38.98c-0.16,0.01-0.25,0.01-0.41,0.01c-0.02,34.14-0.03,68.29-0.05,102.43
			c-8.12,0.94-12.17,1.43-20.28,2.45c0-47.96,0-95.92,0-143.88c9.46,0,18.91,0,28.37,0c7.48,27.58,15.06,55.14,22.73,82.67
			c0.16-0.01,0.25-0.01,0.41-0.02C57.04,55.1,57.07,27.55,57.1,0c8.06,0,12.09,0,20.14,0c-0.06,45.39-0.11,90.78-0.17,136.18
			c-9.28,0.83-13.92,1.27-23.19,2.2C44.53,105.29,35.32,72.15,26.25,38.98z"/>
		<path class="st0" d="M93.48,0c9.04,0,13.57,0,22.61,0c-0.06,44.37-0.12,88.74-0.19,133.11c-9.05,0.62-13.57,0.96-22.61,1.69
			C93.36,89.87,93.42,44.93,93.48,0z"/>
		<path class="st0" d="M154.98,130.81c-9.05,0.44-13.58,0.69-22.63,1.24c0.06-44.02,0.12-88.03,0.18-132.05c9.04,0,13.57,0,22.61,0
			c-0.02,18.69-0.05,37.37-0.07,56.06c10.28-0.22,15.42-0.31,25.71-0.46c0.02-18.53,0.04-37.06,0.05-55.6c9.21,0,13.81,0,23.02,0
			c-0.03,43.01-0.06,86.03-0.09,129.04c-9.22,0.22-13.84,0.36-23.06,0.68c0.02-18.53,0.04-37.06,0.05-55.6
			c-10.29,0.21-15.43,0.33-25.71,0.62C155.03,93.44,155,112.12,154.98,130.81z"/>
		<path class="st0" d="M242.9,57.09c9.74-0.02,19.48,0,29.21,0.05c0,7.35,0,11.02,0.01,18.37c-9.74-0.07-19.48-0.09-29.22-0.07
			c0,17.69,0,35.37-0.01,53.06c-9.06,0.03-13.59,0.08-22.65,0.21c0.02-42.91,0.04-85.82,0.06-128.72c19.94,0,39.88,0,59.81,0
			c0,7.36,0.01,11.03,0.01,18.39c-12.4-0.03-24.81-0.04-37.21-0.03C242.9,31.27,242.9,44.18,242.9,57.09z"/>
		<path class="st0" d="M291,0c9.04,0,13.57,0,22.61,0c0.04,43.18,0.08,86.36,0.12,129.54c-9.06-0.3-13.59-0.42-22.65-0.61
			C291.06,85.95,291.03,42.98,291,0z"/>
		<path class="st0" d="M330.05,0c9.04,0,13.57,0,22.61,0c0.05,37.49,0.1,74.98,0.14,112.46c12.41,0.56,24.82,1.23,37.22,1.99
			c0.01,7.63,0.02,11.45,0.03,19.08c-19.93-1.43-39.89-2.58-59.86-3.39C330.15,86.76,330.1,43.38,330.05,0z"/>
		<path class="st0" d="M447.52,98.35c0.16,0.01,0.25,0.02,0.41,0.03C453.01,65.6,458.05,32.8,463.04,0c10.48,0,20.97,0,31.45,0
			c0,47.96,0,95.92,0,143.88c-8.52-1.08-12.78-1.59-21.3-2.57c-0.02-33.78-0.04-67.56-0.05-101.34c-0.16-0.01-0.25-0.01-0.41-0.01
			c-5,33.21-10.03,66.42-15.12,99.62c-8.53-0.91-12.8-1.35-21.34-2.17c-5.46-32.55-10.97-65.08-16.55-97.61
			c-0.16,0-0.25-0.01-0.41-0.01c0.04,32.03,0.08,64.05,0.12,96.08c-7.89-0.69-11.83-1.01-19.72-1.62
			c-0.06-44.75-0.12-89.5-0.19-134.25c10.48,0,20.97,0,31.45,0C436.55,32.77,442.07,65.56,447.52,98.35z"/>
	</g>
</g>
</svg>
